<svg t="1592319006269" class="icon" viewBox="0 0 1024 1024" version="1.1" xmlns="http://www.w3.org/2000/svg" p-id="3477" width="200" height="200"><path d="M853.333333 0a128 128 0 0 1 128 128v768a128 128 0 0 1-128 128H170.666667a128 128 0 0 1-128-128V128a128 128 0 0 1 128-128z m-85.333333 682.666667H426.666667a42.666667 42.666667 0 0 0 0 85.333333h341.333333a42.666667 42.666667 0 0 0 0-85.333333zM256 682.666667a42.666667 42.666667 0 1 0 0 85.333333 42.666667 42.666667 0 0 0 0-85.333333z m512-213.333334H426.666667a42.666667 42.666667 0 0 0 0 85.333334h341.333333a42.666667 42.666667 0 0 0 0-85.333334zM256 469.333333a42.666667 42.666667 0 1 0 0 85.333334 42.666667 42.666667 0 0 0 0-85.333334z m512-213.333333H426.666667a42.666667 42.666667 0 0 0 0 85.333333h341.333333a42.666667 42.666667 0 0 0 0-85.333333zM256 256a42.666667 42.666667 0 1 0 0 85.333333 42.666667 42.666667 0 0 0 0-85.333333z" fill="#ffffff" p-id="3478"></path></svg>