<svg t="1593615866906" class="icon" viewBox="0 0 1024 1024" version="1.1" xmlns="http://www.w3.org/2000/svg" p-id="42628" width="200" height="200"><path d="M565.49844 517.552322c0-0.348009-0.063274-0.66438-0.063274-1.012389-4.998671 42.172336-23.601322 83.079186-56.187598 115.475639l-0.253097 0.253097c-77.099762 76.372107-202.034912 76.34047-279.0714-0.126549l0 0c-77.099762-76.498656-77.099762-200.547966 0.031637-277.046622-77.131399 76.498656-115.665462 176.788457-115.665462 277.046622 0 50.366361 9.744246 100.732722 29.2011 148.093552 40.653752 20.311058 86.622548 31.478975 135.248865 30.751321 160.811691-2.467699 289.258566-133.825192 286.75923-293.434671z" p-id="42629" fill="#f3900b"></path><path d="M788.318967 355.095499l0 0c-15.407298-15.280749-31.795347-28.97964-48.942689-41.191584-31.637161-22.588933-65.742021-40.527204-101.365465-52.707511-31.225878-8.795131-60.711713-25.309729-85.325424-49.733618-19.456854-19.298668-33.978311-41.666141-43.596008-65.488924-18.887385-46.728087-18.887385-99.214138-0.031637-145.942225-16.103315 8.731857-31.289153 19.741589-44.924769 33.250657-59.034943 58.560386-72.702197 144.929836-41.34977 216.588006 9.491148 21.703093 23.031853 42.077425 40.811938 59.889146-0.031637 0.063274-0.063274 0.094911-0.094911 0.126549l46.126981 45.81061c3.796459 3.796459 7.24491 7.751105 10.661723 11.800661-0.348009-0.569469-0.66438-1.138938-1.012389-1.67677 53.561714 56.345784 86.907282 131.9586 88.204406 215.512343 2.752433 177.452838-139.994439 323.521612-318.839312 326.242407-22.462385 0.348009-44.418574-1.613495-65.64711-5.631415 2.309513 2.404424 4.555751 4.90376 6.960175 7.24491 77.099762 76.56193 178.117218 114.811258 279.166311 114.811258s202.129824-38.249328 279.197949-114.747984c50.872555-50.461272 84.819229-111.299533 102.156394-175.617882 8.921679-33.187382 13.509068-67.292242 13.509068-101.428739 0-100.289801-38.5657-200.547966-115.665462-277.046622z" p-id="42630" fill="#f3900b"></path></svg>