<svg t="1593615559998" class="icon" viewBox="0 0 1024 1024" version="1.1" xmlns="http://www.w3.org/2000/svg" p-id="30685" width="200" height="200"><path d="M384.223214 611.310235c0 69.070217 57.339132 125.066462 128.071338 125.066462 70.730161 0 128.070315-55.995222 128.070315-125.066462 0-69.074308-89.502965-245.389351-128.070315-291.160016C472.806716 366.815801 384.223214 542.234904 384.223214 611.310235z" p-id="30686" fill="#1296db"></path><path d="M511.999996 0c-282.770296 0-512 229.230727-512 512s229.230727 512 512 512 512-229.230727 512-512S794.769269 0 511.999996 0zM512.293529 768.395298c-88.415769 0-160.088916-71.67417-160.088916-160.087894 0-88.414746 110.728355-292.46097 160.088916-352.194389 48.208931 58.586902 160.087894 263.77862 160.087894 352.194389C672.381422 696.721127 600.707252 768.395298 512.293529 768.395298z" p-id="30687" fill="#1296db"></path></svg>