<svg t="1593615764129" class="icon" viewBox="0 0 1024 1024" version="1.1" xmlns="http://www.w3.org/2000/svg" p-id="40379" width="200" height="200"><path d="M890.6 441.8l-364-338.2c-7.7-7.1-19.6-7.1-27.3 0l-364 338.2c-13.3 12.4-4.6 34.7 13.6 34.7h42.5v398.9c0 11.1 9.1 20.2 20.2 20.2h599.5c11.1 0 20.2-9.1 20.2-20.2V476.5H877c18.2 0 27-22.3 13.6-34.7z m-253.9 18.8L530.6 574.7V589h87.2c4.4 0 8.5 1.7 12.2 5.2 3.7 3.3 5.6 7.8 5.6 13.6 0 5.6-1.9 9.9-5.6 12.9-3.7 3-7.8 4.5-12.2 4.5h-87.2V660h87.1c4.4 0 8.5 1.7 12.2 5.2 3.7 3.3 5.6 7.8 5.6 13.6 0 5.6-1.9 9.9-5.6 12.9-3.7 3-7.8 4.5-12.2 4.5h-87.2V751c0 4.4-1.9 8.1-5.6 11.2-4.2 4-8.5 5.8-12.9 5.6-4.4 0-8.5-1.7-12.2-5.2-3.7-3.5-5.6-7.3-5.6-11.5v-54.8h-89.7c-5.1 0-9.2-1.9-12.2-5.6-3.5-4-5.2-8.1-5.2-12.6 0-4.9 1.5-9.2 4.5-12.9 3-3.5 7.3-5.2 12.9-5.2h89.7v-34.7h-89.7c-5.1 0-9.2-1.9-12.2-5.6-3.5-4-5.2-8.1-5.2-12.6 0-4.9 1.5-9.2 4.5-12.9 3-3.5 7.3-5.2 12.9-5.2h90v-15L383.7 456.4c-2.3-3.3-3.1-7.7-2.4-13.3 0.7-5.1 2.8-9.1 6.3-11.9 3.3-2.8 7.7-3.8 13.3-3.1 5.6 0.9 9.9 3.6 12.9 8l99.4 105.4L607.4 440c4.2-5.3 8.8-8.7 14-10.1 5.1-1.2 9.5-0.2 13.3 2.8 4 3.3 6.3 7.4 7 12.6 0.3 5.1-1.3 10.2-5 15.3z" p-id="40380" fill="#009900"></path></svg>