<svg t="1594223392070" class="icon" viewBox="0 0 1024 1024" version="1.1" xmlns="http://www.w3.org/2000/svg" p-id="7506" width="200" height="200"><path d="M503.21 872.68H137.85v-19.49c0-201.36 162.67-366.92 362.58-369.07h6.26c113.67-1.45 205.71-94.35 205.72-208.36 0-114.92-93.48-208.42-208.4-208.43-114.91 0-208.41 93.49-208.42 208.4a208.42 208.42 0 0 0 94.49 174.37A414.78 414.78 0 0 0 208 558.89 419.53 419.53 0 0 0 87.85 853.18v44.47a25 25 0 0 0 25 25h390.37a25 25 0 1 0 0-50z m-157.59-597c0-87.35 71.08-158.41 158.42-158.41s158.41 71.08 158.41 158.43S591.37 434.1 504 434.1 345.62 363 345.62 275.68z" fill="#0ceb2a" p-id="7507"></path><path d="M975.7 639.27A25 25 0 0 0 958 632h-38.1a192.86 192.86 0 0 0-8.66-19.31l23.79-23.8a25 25 0 0 0 0-35.35l-54.16-54.17a25 25 0 0 0-17.66-7.37 25 25 0 0 0-17.68 7.32L820 524.87a193.77 193.77 0 0 0-20.34-8.14V481a25 25 0 0 0-25-25H698a25 25 0 0 0-25 25v36.36a195.17 195.17 0 0 0-22.11 9.26L626.26 502a25 25 0 0 0-17.68-7.33A25 25 0 0 0 590.9 502l-54.17 54.16a25 25 0 0 0 0 35.36l24.8 24.79a193.29 193.29 0 0 0-10.08 24.77h-35.26a25 25 0 0 0-25 25v76.61a25 25 0 0 0 25 25h36.74a192.41 192.41 0 0 0 11.32 25.82l-23.75 23.73a25 25 0 0 0 0 35.35l54.17 54.18a25 25 0 0 0 17.68 7.32 25 25 0 0 0 17.65-7.32l26.4-26.4a193.64 193.64 0 0 0 25.84 9.6v31.2a25 25 0 0 0 25 25h76.61a25 25 0 0 0 25-25v-36.85A192.84 192.84 0 0 0 830 874.5l22.3 22.3a25 25 0 0 0 35.36 0l54.17-54.17a25 25 0 0 0 0-35.35l-25.69-25.7a192.76 192.76 0 0 0 8.53-23H958a25 25 0 0 0 25-25V657a25 25 0 0 0-7.3-17.73zM933 708.56h-28A25 25 0 0 0 880.47 729 144.15 144.15 0 0 1 864 774.11a25 25 0 0 0 4 30L888.81 825 870 843.77l-18.51-18.52a25 25 0 0 0-31.84-2.92 144.69 144.69 0 0 1-42.58 20 25 25 0 0 0-18.19 24.06v29.77h-26.62v-26a25 25 0 0 0-20.63-24.61 144.22 144.22 0 0 1-47.42-17.4 25 25 0 0 0-30.21 3.96l-21.63 21.62-18.81-18.81 19.84-19.84a25 25 0 0 0 3-31.64 144.49 144.49 0 0 1-20.61-46.68 25 25 0 0 0-24.29-19.09h-30.31v-26.61h29.34A25 25 0 0 0 595 671.34a144.12 144.12 0 0 1 18.74-46.17 25 25 0 0 0-3.53-30.92l-20.42-20.43L608.57 555l20.34 20.34a25 25 0 0 0 31 3.49 144.35 144.35 0 0 1 43.86-18.38A25 25 0 0 0 723 536.13V506h26.61v29.65a25 25 0 0 0 19.55 24.4 144.82 144.82 0 0 1 42.61 17 25 25 0 0 0 30.49-3.79l20.92-20.91L882 571.16l-19.72 19.74a25 25 0 0 0-3.21 31.41A144.27 144.27 0 0 1 878.13 665a25 25 0 0 0 33.2 17H933z" fill="#0ceb2a" p-id="7508"></path><path d="M737.75 607.42a95.37 95.37 0 1 0 0 190.74 95.37 95.37 0 0 0 0-190.74z m45.36 95.38a45.37 45.37 0 1 1-45.37-45.38 45.41 45.41 0 0 1 45.37 45.38z" fill="#0ceb2a" p-id="7509"></path></svg>