<svg t="1593614488370" class="icon" viewBox="0 0 1024 1024" version="1.1" xmlns="http://www.w3.org/2000/svg" p-id="30410" width="200" height="200"><path d="M512 0C230.4 0 0 230.4 0 512s230.4 512 512 512 512-230.4 512-512S793.6 0 512 0zM366.933333 640C85.333333 349.866667 298.666667 136.533333 405.333333 260.266667c59.733333 68.266667-17.066667 115.2-21.333333 166.4-8.533333 55.466667 38.4 102.4 81.066667 145.066666 34.133333 38.4 76.8 59.733333 128 64 72.533333-8.533333 119.466667-59.733333 179.2 4.266667 106.666667 110.933333-128 294.4-405.333334 0z" fill="#009900" p-id="30411"></path></svg>