<svg t="1593614352809" class="icon" viewBox="0 0 1024 1024" version="1.1" xmlns="http://www.w3.org/2000/svg" p-id="26348" width="200" height="200"><path d="M508.342857 96.914286C281.6 96.914286 96.914286 281.6 96.914286 508.342857s184.685714 411.428571 411.428571 411.428572 411.428571-184.685714 411.428572-411.428572S735.085714 96.914286 508.342857 96.914286z m-173.714286 374.857143l164.571429-164.571429c7.314286-5.485714 14.628571-10.971429 23.771429-12.8l-3.657143 197.485714-197.485715 3.657143c0-9.142857 5.485714-18.285714 12.8-23.771428z m365.714286 208.457142H327.314286c-10.971429 0-20.114286-7.314286-20.114286-20.114285 0-10.971429 7.314286-20.114286 20.114286-20.114286h100.571428l-96.914285-96.914286c-7.314286-7.314286-10.971429-14.628571-12.8-23.771428l208.457142-1.828572c3.657143 0 7.314286-1.828571 9.142858-5.485714s5.485714-5.485714 5.485714-9.142857l3.657143-210.285714c9.142857 1.828571 18.285714 7.314286 23.771428 12.8l122.514286 122.514285c18.285714 18.285714 18.285714 51.2-1.828571 71.314286l-137.142858 137.142857h146.285715c10.971429 0 20.114286 9.142857 20.114285 21.942857 1.828571 12.8-7.314286 21.942857-18.285714 21.942857z" fill="#F29E9E" p-id="26349"></path></svg>