<svg t="1593607839145" class="icon" viewBox="0 0 1024 1024" version="1.1" xmlns="http://www.w3.org/2000/svg" p-id="9853" width="200" height="200"><path d="M8.258065 519.547871C8.258065 242.176 233.917935 16.516129 511.289806 16.516129s503.031742 225.659871 503.031742 503.031742-225.659871 503.031742-503.031742 503.031742S8.258065 796.903226 8.258065 519.547871z m716.271483-48.755613a33.032258 33.032258 0 0 0-33.032258-33.032258H575.421935V321.684645a33.032258 33.032258 0 0 0-33.032258-33.032258h-87.717161a33.032258 33.032258 0 0 0-33.032258 33.032258V437.743484H305.548387a33.032258 33.032258 0 0 0-33.032258 33.032258v87.733677a33.032258 33.032258 0 0 0 33.032258 33.032258h116.091871v116.091871a33.032258 33.032258 0 0 0 33.032258 33.032258h87.717161a33.032258 33.032258 0 0 0 33.032258-33.032258v-116.091871h116.075355a33.032258 33.032258 0 0 0 33.032258-33.032258v-87.717161z" fill="#009900" p-id="9854"></path></svg>