<svg t="1592061157797" class="icon" viewBox="0 0 1024 1024" version="1.1" xmlns="http://www.w3.org/2000/svg" p-id="27364" width="200" height="200"><path d="M477.866667 460.8a51.2 51.2 0 1 1-51.2 51.2 51.2 51.2 0 0 1 51.2-51.2z" fill="#ffffff" p-id="27365"></path><path d="M904.533333 119.466667a34.133333 34.133333 0 0 1 34.133334 34.133333v716.8a34.133333 34.133333 0 0 1-34.133334 34.133333H631.466667V119.466667h273.066666m0-34.133334H597.333333v853.333334h307.2a68.266667 68.266667 0 0 0 68.266667-68.266667V153.6a68.266667 68.266667 0 0 0-68.266667-68.266667z" fill="#ffffff" p-id="27366"></path><path d="M532.48 34.133333A68.266667 68.266667 0 0 1 597.333333 102.4v819.2a68.266667 68.266667 0 0 1-64.853333 68.266667L161.109333 904.533333H153.6c-37.034667 0-68.266667-23.381333-68.266667-51.2V170.666667c0-27.818667 31.232-51.2 68.266667-51.2h7.509333L532.48 34.133333M529.066667 0L153.6 85.333333c-56.490667 0-102.4 38.229333-102.4 85.333334v682.666666c0 47.104 45.909333 85.333333 102.4 85.333334l375.466667 85.333333a102.4 102.4 0 0 0 102.4-102.4V102.4a102.4 102.4 0 0 0-102.4-102.4z" fill="#ffffff" p-id="27367"></path></svg>