<svg t="1593607505182" class="icon" viewBox="0 0 1024 1024" version="1.1" xmlns="http://www.w3.org/2000/svg" p-id="4893" width="200" height="200"><path d="M512.021489 75.491345c-241.076614 0-436.507632 195.431018-436.507632 436.507632s195.431018 436.507632 436.507632 436.507632 436.507632-195.431018 436.507632-436.507632S753.098103 75.491345 512.021489 75.491345zM282.507212 305.638025l19.639293-19.639293c1.302669-1.302669 3.329838-1.537006 4.895497-0.566912l75.856665 47.02706c0.716314 0.444115 1.27197 1.104147 1.587148 1.88493l19.74367 48.846498c0.199545 0.493234 0.496304 0.941442 0.87288 1.318018l62.261019 62.262042c1.549286 1.549286 1.549286 4.060479 0 5.609765l-18.505469 18.505469c-1.549286 1.549286-4.060479 1.549286-5.609765 0l-61.994959-61.994959c-0.344854-0.344854-0.74906-0.62217-1.194198-0.820692l-48.934502-21.738094c-0.711198-0.316202-1.313925-0.833995-1.732457-1.489934l-47.422056-74.264401C280.967136 309.008796 281.190217 306.953997 282.507212 305.638025zM740.855268 719.04145l-24.778336 24.778336c-13.885242 13.885242-36.605709 13.885242-50.490951 0L530.010189 608.242971c-1.549286-1.549286-1.549286-4.060479 0-5.609765l8.41567-8.41567c1.549286-1.549286 4.060479-1.549286 5.609765 0l121.083729 121.083729c3.856841 3.856841 10.168594 3.856841 14.025435 0 3.856841-3.856841 3.856841-10.16757 0-14.024411L558.060035 580.192102c-1.549286-1.549286-1.549286-4.060479 0-5.609765l14.687514-14.687514c1.549286-1.549286 4.060479-1.549286 5.609765 0l121.083729 121.083729c3.856841 3.856841 10.168594 3.856841 14.025435 0 3.856841-3.856841 3.856841-10.168594 0-14.025435L592.382748 545.869389c-1.549286-1.549286-1.549286-4.060479 0-5.609765l7.284917-7.284917c1.549286-1.549286 4.060479-1.549286 5.609765 0l135.576815 135.576815C754.74051 682.435741 754.74051 705.157231 740.855268 719.04145zM774.898619 390.297171l-73.837682 73.837682c-1.946328 1.946328-4.782933 2.706645-7.441483 1.994424l-50.632167-13.566994c-1.369184-0.366344-2.829442 0.024559-3.832282 1.026376L453.847555 638.897132c-1.001817 1.001817-1.393743 2.463098-1.026376 3.832282l13.453407 50.207495c0.782829 2.920516-0.052189 6.037507-2.190899 8.176217l-74.368778 74.367755c-2.278903 2.278903-5.601578 3.169179-8.715499 2.335185l-42.667775-11.432377c-7.212262-1.932002-9.627265-10.94733-4.348028-16.22759l54.712089-54.712089c1.001817-1.001817 1.393743-2.463098 1.026376-3.832282l-7.134491-26.624381c-3.080152-11.495822-12.059664-20.475334-23.555485-23.555485l-26.624381-7.134491c-1.369184-0.367367-2.829442 0.024559-3.832282 1.026376l-54.712089 54.712089c-5.279237 5.279237-14.294564 2.864234-16.22759-4.348028l-11.432377-42.667775c-0.833995-3.113921 0.056282-6.435573 2.335185-8.715499l74.368778-74.367755c2.13871-2.13871 5.254677-2.973728 8.176217-2.190899l50.207495 13.453407c1.369184 0.366344 2.829442-0.024559 3.831258-1.026376l185.308473-185.308473c1.001817-1.001817 1.393743-2.463098 1.026376-3.831258l-13.566994-50.631144c-0.712221-2.65855 0.048095-5.495154 1.994424-7.441483l73.837682-73.837682c2.799766-2.799766 6.880711-3.89368 10.704806-2.868327l41.518602 11.125385c7.212262 1.932002 9.627265 10.94733 4.348028 16.22759l-54.712089 54.712089c-1.001817 1.001817-1.393743 2.463098-1.026376 3.832282l7.134491 26.624381c3.080152 11.495822 12.059664 20.475334 23.555485 23.555485l26.624381 7.134491c1.369184 0.366344 2.829442-0.024559 3.831258-1.026376l54.712089-54.712089c5.279237-5.279237 14.294564-2.864234 16.22759 4.348028l11.125385 41.518602C778.791276 383.41646 777.698384 387.497405 774.898619 390.297171z" p-id="4894" fill="#f3900b"></path></svg>